<svg aria-hidden="true" style="position: absolute; width: 0; height: 0; overflow: hidden;" version="1.1" xmlns="http://www.w3.org/2000/svg" xmlns:xlink="http://www.w3.org/1999/xlink">
<defs>
<symbol id="icon-computer" viewBox="0 0 32 32">
<path fill="#fff" style="fill: var(--color1, #fff); stroke: var(--color2, #fed136)" stroke="#fed136" stroke-linejoin="miter" stroke-linecap="butt" stroke-miterlimit="4" stroke-width="1.3151" d="M31.359 15.92c0-8.382-6.795-15.177-15.177-15.177s-15.177 6.795-15.177 15.177c0 8.382 6.795 15.177 15.177 15.177s15.177-6.795 15.177-15.177z"></path>
<path fill="#fed136" style="fill: var(--color2, #fed136)" d="M21.757 7.89h-11.795c-0.977 0-1.769 0.792-1.769 1.769v7.667c0 0.207 0.036 0.405 0.101 0.59h-0.101v1.18h1.769v-9.436h11.795v9.436h1.769v-1.18h-0.101c0.065-0.184 0.101-0.383 0.101-0.59v-7.667c0-0.977-0.792-1.769-1.769-1.769zM8.193 20.275h15.333c0.651 0 1.18 0.528 1.18 1.18s-1.118 1.179-1.769 1.179h-14.154c-0.651 0-1.769-0.528-1.769-1.179s0.528-1.18 1.179-1.18zM17.629 21.455h-3.538c-0.326 0-0.59 0.132-0.59 0.295s0.264 0.295 0.59 0.295h3.538c0.326 0 0.59-0.132 0.59-0.295s-0.264-0.295-0.59-0.295zM11.9 14.809l0.83-0.834c0.229-0.23 0.601-0.23 0.83 0l1.088 1.093 3.508-3.524c0.229-0.23 0.601-0.23 0.83 0l0.83 0.834c0.229 0.23 0.229 0.604 0 0.834l-4.567 4.587c-0.196 0.197-0.497 0.226-0.723 0.085-0.192 0.046-0.402-0.006-0.552-0.157l-2.076-2.085c-0.229-0.23-0.229-0.604 0-0.834z"></path>
</symbol>
<symbol id="icon-e-commers" viewBox="0 0 32 32">
<path fill="#fff" style="fill: var(--color1, #fff); stroke: var(--color2, #fed136)" stroke="#fed136" stroke-linejoin="miter" stroke-linecap="butt" stroke-miterlimit="4" stroke-width="1.3151" d="M31.41 15.917c0-8.382-6.795-15.177-15.177-15.177s-15.177 6.795-15.177 15.177c0 8.382 6.795 15.177 15.177 15.177s15.177-6.795 15.177-15.177z"></path>
<path fill="#fed136" style="fill: var(--color2, #fed136)" d="M17.122 6.737c-0.577 0.333-0.775 1.071-0.442 1.649l1.277 2.212h-4.99l1.277-2.212c0.333-0.577 0.136-1.315-0.442-1.649s-1.315-0.136-1.649 0.442l-1.81 3.136c-0.053 0.091-0.092 0.186-0.119 0.283h-1.703c-0.833 0-1.509 0.675-1.509 1.508s0.675 1.509 1.509 1.509h13.88c0.833 0 1.509-0.676 1.509-1.509s-0.675-1.508-1.509-1.508h-1.703c-0.027-0.097-0.066-0.192-0.119-0.283l-1.81-3.136c-0.333-0.577-1.071-0.775-1.649-0.442zM8.778 23.271l-0.522-9.052h14.414l-0.522 9.052h-13.369zM16.066 17.236c0-0.333-0.27-0.603-0.603-0.603s-0.604 0.27-0.604 0.603v3.621c0 0.333 0.27 0.603 0.604 0.603s0.603-0.27 0.603-0.603v-3.621zM19.083 16.633c0.333 0 0.603 0.27 0.603 0.603v3.621c0 0.333-0.27 0.603-0.603 0.603s-0.604-0.27-0.604-0.603v-3.621c0-0.333 0.27-0.603 0.604-0.603zM12.445 17.236c0-0.333-0.27-0.603-0.603-0.603s-0.604 0.27-0.604 0.603v3.621c0 0.333 0.27 0.603 0.604 0.603s0.603-0.27 0.603-0.603v-3.621z"></path>
</symbol>
<symbol id="icon-lock" viewBox="0 0 32 32">
<path fill="#fff" style="fill: var(--color1, #fff); stroke: var(--color2, #fed136)" stroke="#fed136" stroke-linejoin="miter" stroke-linecap="butt" stroke-miterlimit="4" stroke-width="1.3151" d="M31.377 15.916c0-8.382-6.795-15.177-15.177-15.177s-15.177 6.795-15.177 15.177c0 8.382 6.795 15.177 15.177 15.177s15.177-6.795 15.177-15.177z"></path>
<path fill="#fed136" style="fill: var(--color2, #fed136)" d="M15.342 6.137c2.26 0 4.091 1.603 4.091 3.58v4.091h0.511c0.847 0 1.534 0.687 1.534 1.534v5.625c0 0.847-0.687 1.534-1.534 1.534h-9.205c-0.847 0-1.534-0.687-1.534-1.534v-5.625c0-0.848 0.687-1.534 1.534-1.534h0.511v-4.091c0-1.977 1.832-3.58 4.091-3.58zM17.271 13.808h-3.858c-0.075-0.16-0.116-0.332-0.116-0.512v-3.58c0-0.847 0.916-1.534 2.046-1.534s2.046 0.687 2.046 1.534v3.58c0 0.179-0.041 0.352-0.116 0.512zM16.365 19.16c0.611-0.354 1.023-1.015 1.023-1.772 0-1.129-0.916-2.045-2.046-2.045s-2.046 0.916-2.046 2.045c0 0.757 0.411 1.418 1.023 1.772v0.785c0 0.565 0.458 1.023 1.023 1.023s1.023-0.458 1.023-1.023v-0.785z"></path>
</symbol>
</defs>
</svg>
